#N canvas 497 131 1162 831 12;
#X obj 271 289 / -3;
#X obj 205 206 t f b;
#X obj 215 292 * 1;
#X obj 113 378 pack f f 0;
#X obj 246 383 pack f f 0;
#X obj 123 243 * -1;
#X obj 354 433 pack 0 f 0;
#X obj 355 370 t b f;
#X obj 353 340 * -2;
#X obj 163 161 t f f;
#X text 324 490 equilateral triangle with sides 2 \, so height is sqrt(3)
;
#X text 324 513 center of triangle is 1/3 height up from base = sqrt(3)/3
;
#X obj 118 552 primTri, f 22;
#X obj 57 97 inlet;
#X obj 146 29 inlet;
#X msg 277 226 3;
#X obj 277 251 sqrt;
#X obj 235 17 loadbang;
#X obj 231 49 f \$1;
#X obj 231 74 moses 1e-24;
#X msg 221 98 1;
#X obj 118 577 outlet;
#X obj 141 82 max 0;
#X text 310 30 DKEQTRI: GEM equilateral triangle;
#X text 4 43 gemlist/messages;
#X text 314 45 Derek Kwan 2016 \, gpl v3;
#X obj 432 81 inlet;
#X text 484 81 color: left corner;
#X obj 467 117 inlet;
#X text 521 112 color: right corner;
#X obj 497 159 inlet;
#X text 528 182 color: top corner;
#X obj 526 254 cnv 15 200 160 empty empty empty 20 12 0 14 -262130
-66577 0;
#X text 532 265 arg: size;
#X text 527 286 in1: gemlist/messages;
#X text 529 305 in2: size;
#X text 528 327 in3: color: left corner;
#X text 529 348 in4: color: right corner;
#X text 531 366 in5: color: top corner;
#X connect 0 0 2 1;
#X connect 1 0 2 0;
#X connect 1 1 15 0;
#X connect 2 0 3 1;
#X connect 2 0 4 1;
#X connect 2 0 8 0;
#X connect 3 0 12 1;
#X connect 4 0 12 2;
#X connect 5 0 3 0;
#X connect 6 0 12 3;
#X connect 7 0 6 0;
#X connect 7 1 6 1;
#X connect 8 0 7 0;
#X connect 9 0 5 0;
#X connect 9 0 4 0;
#X connect 9 1 1 0;
#X connect 12 0 21 0;
#X connect 13 0 12 0;
#X connect 14 0 22 0;
#X connect 15 0 16 0;
#X connect 16 0 0 0;
#X connect 17 0 18 0;
#X connect 18 0 19 0;
#X connect 19 0 20 0;
#X connect 19 1 9 0;
#X connect 20 0 9 0;
#X connect 22 0 9 0;
#X connect 26 0 12 4;
#X connect 28 0 12 5;
#X connect 30 0 12 6;
