#N canvas 735 451 1177 788 12;
#X obj 246 745 gemwin;
#X obj 109 145 tgl 15 0 empty empty win 17 7 0 12 -262144 -1 -1 0 1
;
#X obj 21 252 sel 1 0;
#X msg 333 700 0 \, destroy;
#X floatatom 119 191 5 0 1e+20 0 w - -, f 5;
#X floatatom 173 189 5 0 1e+20 0 h - -, f 5;
#X msg 274 536 create \, 1;
#X msg 616 686 reset;
#X obj 112 170 tgl 15 0 empty empty fullscreen 17 7 0 12 -262144 -1
-1 0 1;
#X msg 135 74 0;
#N canvas 107 103 450 300 dkgemwin_esc 0;
#X obj 65 20 gemkeyboard;
#X obj 65 167 outlet;
#X obj 89 71 keyname;
#X obj 128 96 sel Escape;
#X obj 65 41 sel 53;
#X obj 189 47 sel Escape;
#X obj 150 22 gemkeyname;
#X connect 0 0 4 0;
#X connect 2 1 3 0;
#X connect 3 0 1 0;
#X connect 4 0 1 0;
#X connect 5 0 1 0;
#X connect 6 1 5 0;
#X restore 135 50 pd dkgemwin_esc;
#X obj 105 227 hradio 15 1 0 5 empty empty fsaa 0 -8 0 12 -262144 -1
-1 0;
#X obj 21 305 t b b b b, f 83;
#X floatatom 243 187 5 0 1e+20 0 fps - -, f 5;
#N canvas 76 538 1892 732 dkgemwin_precreate 0;
#X obj 578 411 pack f f;
#X obj 580 381 t b f;
#X obj 280 531 list;
#X msg 278 575 dimen \$1 \$2;
#X msg 531 551 fullscreen \$1;
#X obj 531 520 f 0;
#X msg 653 242 0;
#X msg 704 245 2;
#X obj 662 218 sel 0 1 2 3 4, f 39;
#X msg 740 247 4;
#X msg 777 249 5;
#X msg 822 250 8;
#X obj 427 464 f 0;
#X msg 427 488 FSAA \$1;
#X obj 278 227 inlet;
#X obj 680 85 inlet;
#X text 727 91 fsaa;
#X text 332 230 trig;
#X obj 480 74 inlet;
#X text 527 77 w;
#X text 644 81 h;
#X obj 579 76 inlet;
#X obj 369 97 inlet;
#X text 417 102 fullscreen;
#X obj 370 666 outlet;
#X obj 910 91 inlet;
#X text 960 94 border;
#X obj 669 551 f 1;
#X msg 669 579 border \$1;
#X obj 1076 85 inlet;
#X text 1125 82 buffer;
#X obj 895 385 f 2;
#X msg 895 409 buffer \$1;
#X obj 1076 109 + 1;
#X obj 1209 84 inlet;
#X text 1259 81 offsetx;
#X obj 1210 179 pack f f;
#X text 1411 71 offsety;
#X obj 1359 75 inlet;
#X obj 1359 99 t b f;
#X obj 1100 391 list;
#X obj 284 311 t b b b b b b, f 115;
#X msg 1100 415 offset \$1 \$2;
#X connect 0 0 2 1;
#X connect 1 0 0 0;
#X connect 1 1 0 1;
#X connect 2 0 3 0;
#X connect 3 0 24 0;
#X connect 4 0 24 0;
#X connect 5 0 4 0;
#X connect 6 0 12 1;
#X connect 7 0 12 1;
#X connect 8 0 6 0;
#X connect 8 1 7 0;
#X connect 8 2 9 0;
#X connect 8 3 10 0;
#X connect 8 4 11 0;
#X connect 9 0 12 1;
#X connect 10 0 12 1;
#X connect 11 0 12 1;
#X connect 12 0 13 0;
#X connect 13 0 24 0;
#X connect 14 0 41 0;
#X connect 15 0 8 0;
#X connect 18 0 0 0;
#X connect 21 0 1 0;
#X connect 22 0 5 1;
#X connect 25 0 27 1;
#X connect 27 0 28 0;
#X connect 28 0 24 0;
#X connect 29 0 33 0;
#X connect 31 0 32 0;
#X connect 32 0 24 0;
#X connect 33 0 31 1;
#X connect 34 0 36 0;
#X connect 36 0 40 1;
#X connect 38 0 39 0;
#X connect 39 0 36 0;
#X connect 39 1 36 1;
#X connect 40 0 42 0;
#X connect 41 0 2 0;
#X connect 41 1 12 0;
#X connect 41 2 5 0;
#X connect 41 3 27 0;
#X connect 41 4 31 0;
#X connect 41 5 40 0;
#X connect 42 0 24 0;
#X restore 403 356 pd dkgemwin_precreate;
#N canvas 892 351 1138 756 dkgemwin_postcreate 0;
#X obj 373 417 f 20;
#X msg 373 441 frame \$1;
#X obj 279 97 inlet;
#X text 332 99 trig;
#X obj 290 506 outlet;
#X obj 405 96 inlet;
#X text 450 103 fps;
#X msg 305 384 lighting \$1;
#X obj 317 336 f 1;
#X obj 512 101 inlet;
#X text 563 96 lighting;
#X obj 234 172 t b b;
#X connect 0 0 1 0;
#X connect 1 0 4 0;
#X connect 2 0 11 0;
#X connect 5 0 0 1;
#X connect 7 0 4 0;
#X connect 8 0 7 0;
#X connect 9 0 8 1;
#X connect 11 0 8 0;
#X connect 11 1 0 0;
#X restore 27 446 pd dkgemwin_postcreate;
#X obj 204 165 tgl 15 0 empty empty light 17 7 0 12 -262144 -1 -1 1
1;
#X obj 154 143 tgl 15 0 empty empty border 17 7 0 12 -262144 -1 -1
1 1;
#X obj 224 140 tgl 15 0 empty empty dblbuf 17 7 0 12 -262144 -1 -1
1 1;
#X floatatom 200 222 5 0 1e+20 0 ox - -, f 5;
#X floatatom 258 222 5 0 1e+20 0 oy - -, f 5;
#X obj 330 26 loadbang;
#X msg 330 50 1 1 0 1 640 480 20 0 0 0;
#X obj 330 74 unpack f f f f f f f f f f;
#X connect 1 0 2 0;
#X connect 2 0 12 0;
#X connect 2 1 3 0;
#X connect 3 0 0 0;
#X connect 4 0 14 2;
#X connect 5 0 14 3;
#X connect 6 0 0 0;
#X connect 7 0 0 0;
#X connect 8 0 14 1;
#X connect 9 0 1 0;
#X connect 10 0 9 0;
#X connect 11 0 14 4;
#X connect 12 0 15 0;
#X connect 12 1 6 0;
#X connect 12 2 14 0;
#X connect 12 3 7 0;
#X connect 13 0 15 1;
#X connect 14 0 0 0;
#X connect 15 0 0 0;
#X connect 16 0 15 2;
#X connect 17 0 14 5;
#X connect 18 0 14 6;
#X connect 19 0 14 7;
#X connect 20 0 14 8;
#X connect 21 0 22 0;
#X connect 22 0 23 0;
#X connect 23 0 17 0;
#X connect 23 1 18 0;
#X connect 23 2 8 0;
#X connect 23 3 16 0;
#X connect 23 4 4 0;
#X connect 23 5 5 0;
#X connect 23 6 13 0;
#X connect 23 7 11 0;
#X connect 23 8 19 0;
#X connect 23 9 20 0;
#X coords 0 -1 1 1 200 150 1 100 100;
