#N canvas 764 366 1481 937 12;
#X obj 245 845 gemwin;
#X obj 108 245 tgl 15 0 empty empty win 17 7 0 12 -262144 -1 -1 0 1
;
#X obj 20 374 sel 1 0;
#X msg 332 800 0 \, destroy;
#X floatatom 118 291 5 0 1e+20 0 w - -, f 5;
#X floatatom 172 289 5 0 1e+20 0 h - -, f 5;
#X msg 273 636 create \, 1;
#X msg 615 786 reset;
#X obj 111 270 tgl 15 0 empty empty fullscreen 17 7 0 12 -262144 -1
-1 0 1;
#X msg 16 189 0;
#N canvas 107 103 450 300 dkgemwin_esc 0;
#X obj 65 20 gemkeyboard;
#X obj 65 167 outlet;
#X obj 89 71 keyname;
#X obj 128 96 sel Escape;
#X obj 65 41 sel 53;
#X obj 189 47 sel Escape;
#X obj 150 22 gemkeyname;
#X connect 0 0 4 0;
#X connect 2 1 3 0;
#X connect 3 0 1 0;
#X connect 4 0 1 0;
#X connect 5 0 1 0;
#X connect 6 1 5 0;
#X restore 16 165 pd dkgemwin_esc;
#X obj 104 327 hradio 15 1 0 5 empty empty fsaa 0 -8 0 12 -262144 -1
-1 0;
#X obj 20 405 t b b b b, f 83;
#X floatatom 242 287 5 0 1e+20 0 fps - -, f 5;
#N canvas 76 538 1892 732 dkgemwin_precreate 0;
#X obj 578 411 pack f f;
#X obj 580 381 t b f;
#X obj 280 531 list;
#X msg 278 575 dimen \$1 \$2;
#X msg 531 551 fullscreen \$1;
#X obj 531 520 f 0;
#X msg 653 242 0;
#X msg 704 245 2;
#X obj 662 218 sel 0 1 2 3 4, f 39;
#X msg 740 247 4;
#X msg 777 249 5;
#X msg 822 250 8;
#X obj 427 464 f 0;
#X msg 427 488 FSAA \$1;
#X obj 278 227 inlet;
#X obj 680 85 inlet;
#X text 727 91 fsaa;
#X text 332 230 trig;
#X obj 480 74 inlet;
#X text 527 77 w;
#X text 644 81 h;
#X obj 579 76 inlet;
#X obj 369 97 inlet;
#X text 417 102 fullscreen;
#X obj 370 666 outlet;
#X obj 910 91 inlet;
#X text 960 94 border;
#X obj 669 551 f 1;
#X msg 669 579 border \$1;
#X obj 1076 85 inlet;
#X text 1125 82 buffer;
#X obj 895 385 f 2;
#X msg 895 409 buffer \$1;
#X obj 1076 109 + 1;
#X obj 1209 84 inlet;
#X text 1259 81 offsetx;
#X obj 1210 179 pack f f;
#X text 1411 71 offsety;
#X obj 1359 75 inlet;
#X obj 1359 99 t b f;
#X obj 1100 391 list;
#X obj 284 311 t b b b b b b, f 115;
#X msg 1100 415 offset \$1 \$2;
#X connect 0 0 2 1;
#X connect 1 0 0 0;
#X connect 1 1 0 1;
#X connect 2 0 3 0;
#X connect 3 0 24 0;
#X connect 4 0 24 0;
#X connect 5 0 4 0;
#X connect 6 0 12 1;
#X connect 7 0 12 1;
#X connect 8 0 6 0;
#X connect 8 1 7 0;
#X connect 8 2 9 0;
#X connect 8 3 10 0;
#X connect 8 4 11 0;
#X connect 9 0 12 1;
#X connect 10 0 12 1;
#X connect 11 0 12 1;
#X connect 12 0 13 0;
#X connect 13 0 24 0;
#X connect 14 0 41 0;
#X connect 15 0 8 0;
#X connect 18 0 0 0;
#X connect 21 0 1 0;
#X connect 22 0 5 1;
#X connect 25 0 27 1;
#X connect 27 0 28 0;
#X connect 28 0 24 0;
#X connect 29 0 33 0;
#X connect 31 0 32 0;
#X connect 32 0 24 0;
#X connect 33 0 31 1;
#X connect 34 0 36 0;
#X connect 36 0 40 1;
#X connect 38 0 39 0;
#X connect 39 0 36 0;
#X connect 39 1 36 1;
#X connect 40 0 42 0;
#X connect 41 0 2 0;
#X connect 41 1 12 0;
#X connect 41 2 5 0;
#X connect 41 3 27 0;
#X connect 41 4 31 0;
#X connect 41 5 40 0;
#X connect 42 0 24 0;
#X restore 402 456 pd dkgemwin_precreate;
#N canvas 892 351 1138 756 dkgemwin_postcreate 0;
#X obj 373 417 f 20;
#X msg 373 441 frame \$1;
#X obj 279 97 inlet;
#X text 332 99 trig;
#X obj 290 506 outlet;
#X obj 405 96 inlet;
#X text 450 103 fps;
#X msg 305 384 lighting \$1;
#X obj 317 336 f 1;
#X obj 512 101 inlet;
#X text 563 96 lighting;
#X obj 234 172 t b b;
#X connect 0 0 1 0;
#X connect 1 0 4 0;
#X connect 2 0 11 0;
#X connect 5 0 0 1;
#X connect 7 0 4 0;
#X connect 8 0 7 0;
#X connect 9 0 8 1;
#X connect 11 0 8 0;
#X connect 11 1 0 0;
#X restore 26 546 pd dkgemwin_postcreate;
#X obj 203 265 tgl 15 0 empty empty light 17 7 0 12 -262144 -1 -1 1
1;
#X obj 153 243 tgl 15 0 empty empty border 17 7 0 12 -262144 -1 -1
1 1;
#X obj 223 240 tgl 15 0 empty empty dblbuf 17 7 0 12 -262144 -1 -1
1 1;
#X floatatom 199 322 5 0 1e+20 0 ox - -, f 5;
#X floatatom 257 322 5 0 1e+20 0 oy - -, f 5;
#X obj 646 116 loadbang;
#X obj 152 131 inlet;
#X obj 164 171 route win border dblbuf fullscreen light w h fps fsaa
ox oy;
#X msg 199 141 border 1 \, dblbuf 1 \, fullscreen 0 \, light 1 \, fsaa
0;
#X obj 646 164 f \$1;
#X obj 646 188 sel 0;
#X msg 646 212 640;
#X msg 646 236 w \$1;
#X obj 727 170 f \$2;
#X obj 727 194 sel 0;
#X msg 727 218 480;
#X msg 727 242 h \$1;
#X obj 646 140 t b b b b, f 36;
#X obj 802 175 f \$3;
#X obj 802 199 sel 0;
#X msg 802 223 20;
#X msg 802 247 fps \$1;
#X text 26 19 pdkgemwin - gemwin abstraction gui;
#X text 1137 88 derek kwan;
#X text 1138 109 pdkgem 2018;
#X text 1145 132 gpl v 3;
#X text 25 41 args: w h fps;
#X obj 245 869 outlet;
#X obj 359 869 outlet;
#X obj 40 334 t f f;
#X text 37 69 inlet: gui elements/gemwin messages;
#X text 39 97 outlets: gemwin output \, on/off;
#X connect 0 0 43 0;
#X connect 1 0 45 0;
#X connect 2 0 12 0;
#X connect 2 1 3 0;
#X connect 3 0 0 0;
#X connect 4 0 14 2;
#X connect 5 0 14 3;
#X connect 6 0 0 0;
#X connect 7 0 0 0;
#X connect 8 0 14 1;
#X connect 9 0 1 0;
#X connect 10 0 9 0;
#X connect 11 0 14 4;
#X connect 12 0 15 0;
#X connect 12 1 6 0;
#X connect 12 2 14 0;
#X connect 12 3 7 0;
#X connect 13 0 15 1;
#X connect 14 0 0 0;
#X connect 15 0 0 0;
#X connect 16 0 15 2;
#X connect 17 0 14 5;
#X connect 18 0 14 6;
#X connect 19 0 14 7;
#X connect 20 0 14 8;
#X connect 21 0 33 0;
#X connect 22 0 23 0;
#X connect 23 0 1 0;
#X connect 23 1 17 0;
#X connect 23 2 18 0;
#X connect 23 3 8 0;
#X connect 23 4 16 0;
#X connect 23 5 4 0;
#X connect 23 6 5 0;
#X connect 23 7 13 0;
#X connect 23 8 11 0;
#X connect 23 9 19 0;
#X connect 23 10 20 0;
#X connect 23 11 0 0;
#X connect 24 0 23 0;
#X connect 25 0 26 0;
#X connect 26 0 27 0;
#X connect 26 1 28 0;
#X connect 27 0 28 0;
#X connect 28 0 23 0;
#X connect 29 0 30 0;
#X connect 30 0 31 0;
#X connect 30 1 32 0;
#X connect 31 0 32 0;
#X connect 32 0 23 0;
#X connect 33 0 25 0;
#X connect 33 1 29 0;
#X connect 33 2 34 0;
#X connect 33 3 24 0;
#X connect 34 0 35 0;
#X connect 35 0 36 0;
#X connect 35 1 37 0;
#X connect 36 0 37 0;
#X connect 37 0 23 0;
#X connect 45 0 44 0;
#X connect 45 1 2 0;
#X coords 0 -1 1 1 200 150 1 100 200;
