#N canvas 993 401 1071 749 12;
#X obj 392 128 f \$1;
#X text 348 111 width;
#X obj 544 121 f \$2;
#X text 514 207 height;
#X obj 332 86 inlet;
#X obj 469 99 inlet;
#X obj 22 148 inlet;
#X text 69 153 x;
#X obj 162 156 inlet;
#X text 212 154 y;
#X obj 355 340 /;
#X obj 355 364 * 4;
#X obj 22 172 route float list;
#X obj 74 225 unpack f f;
#X text 801 278 (in_hi - in_lo);
#X text 618 278 ratio: (out_hi - out_lo)/;
#X text 615 253 (input - in_lo) * ratio + out_lo;
#X text 625 203 max in input y = -4 in gem coords;
#X text 618 230 so in_lo = height \, in_hi = 0;
#X obj 171 287 - 0;
#X obj 475 230 t b f f;
#X obj 279 302 t f f;
#X obj 171 335 / 1;
#X obj 171 359 - 4;
#X text 634 324 y: (input-height)*(-8/height) + (-4);
#X obj 171 311 * -8;
#X obj 39 331 * 1;
#X obj 73 294 * 2;
#X obj 104 276 t f f;
#X obj 341 226 t f f;
#X obj 39 355 / 1;
#X obj 41 460 outlet;
#X obj 171 459 outlet;
#X obj 41 436 - 0;
#X obj 512 42 loadbang;
#X obj 512 66 t b b;
#X obj 392 152 moses 1;
#X msg 392 176 640;
#X obj 544 145 moses 1;
#X msg 544 169 480;
#X text 27 44 dkgemcoords: resolution to gem coords converter;
#X text 59 504 x;
#X text 188 508 y;
#X text 795 68 derek kwan;
#X text 800 96 pdkgem 2018;
#X text 802 120 gpl v 3 2018;
#X connect 0 0 36 0;
#X connect 2 0 38 0;
#X connect 4 0 29 0;
#X connect 5 0 20 0;
#X connect 6 0 12 0;
#X connect 8 0 19 0;
#X connect 10 0 11 0;
#X connect 11 0 28 0;
#X connect 12 0 26 0;
#X connect 12 1 13 0;
#X connect 13 0 26 0;
#X connect 13 1 19 0;
#X connect 19 0 25 0;
#X connect 20 0 10 0;
#X connect 20 1 10 1;
#X connect 20 2 21 0;
#X connect 21 0 19 1;
#X connect 21 1 22 1;
#X connect 22 0 23 0;
#X connect 23 0 32 0;
#X connect 25 0 22 0;
#X connect 26 0 30 0;
#X connect 27 0 26 1;
#X connect 28 0 27 0;
#X connect 28 1 33 1;
#X connect 29 0 30 1;
#X connect 29 1 10 0;
#X connect 30 0 33 0;
#X connect 33 0 31 0;
#X connect 34 0 35 0;
#X connect 35 0 0 0;
#X connect 35 1 2 0;
#X connect 36 0 37 0;
#X connect 36 1 29 0;
#X connect 37 0 29 0;
#X connect 38 0 39 0;
#X connect 38 1 20 0;
#X connect 39 0 20 0;
