#N canvas 542 271 1315 812 12;
#X obj 40 81 inlet;
#X obj 40 105 route float list;
#X text 788 216 ratio: (out_hi - out_lo)/;
#X text 785 191 (input - in_lo) * ratio + out_lo;
#X text 970 217 (in_hi - in_lo);
#X text 787 278 x: = (input - (-4 * scr_ratio)) * ratio_x + 0;
#X text 732 423 ratio_y: (0 - height)/8;
#X text 709 446 ratio_x: width/(8 * scr_ratio);
#X obj 368 116 f \$1;
#X text 324 99 width;
#X obj 520 109 f \$2;
#X text 490 195 height;
#X obj 308 74 inlet;
#X obj 445 87 inlet;
#X obj 331 328 /;
#X obj 451 218 t b f f;
#X obj 475 309 t f f;
#X obj 317 214 t f f;
#X obj 488 30 loadbang;
#X obj 488 54 t b b;
#X obj 368 140 moses 1;
#X msg 368 164 640;
#X obj 520 133 moses 1;
#X msg 520 157 480;
#X text 981 85 derek kwan;
#X text 986 113 pdkgem 2018;
#X text 988 137 gpl v 3 2018;
#X obj 35 304 + 0;
#X obj 29 481 * 1;
#X obj 29 505 outlet;
#X obj 100 304 * 4;
#X text 724 487 scr_ratio = width / height;
#X text 718 537 ratio_x: width/(8 * width/height);
#X text 762 560 height/8;
#X obj 469 348 / 8;
#X obj 154 142 inlet;
#X obj 149 334 + 4;
#X obj 469 372 t f f;
#X obj 391 437 * -1;
#X obj 149 358 *;
#X obj 142 493 outlet;
#X text 766 322 y: (input + 4) * ratio_y - height;
#X obj 149 382 + 0;
#X connect 0 0 1 0;
#X connect 1 0 27 0;
#X connect 8 0 20 0;
#X connect 10 0 22 0;
#X connect 12 0 17 0;
#X connect 13 0 15 0;
#X connect 14 0 30 0;
#X connect 15 0 14 0;
#X connect 15 1 14 1;
#X connect 15 2 16 0;
#X connect 16 0 34 0;
#X connect 16 1 42 1;
#X connect 17 1 14 0;
#X connect 18 0 19 0;
#X connect 19 0 8 0;
#X connect 19 1 10 0;
#X connect 20 0 21 0;
#X connect 20 1 17 0;
#X connect 21 0 17 0;
#X connect 22 0 23 0;
#X connect 22 1 15 0;
#X connect 23 0 15 0;
#X connect 27 0 28 0;
#X connect 28 0 29 0;
#X connect 30 0 27 1;
#X connect 34 0 37 0;
#X connect 35 0 36 0;
#X connect 36 0 39 0;
#X connect 37 0 28 1;
#X connect 37 1 38 0;
#X connect 38 0 39 1;
#X connect 39 0 42 0;
#X connect 42 0 40 0;
